<svg width="25" height="24" viewBox="0 0 25 24" fill="none" xmlns="http://www.w3.org/2000/svg">
<path id="Shape" fill-rule="evenodd" clip-rule="evenodd" d="M24.2337 9.82274L13.2224 0.317552C12.7226 -0.113637 11.9213 -0.104605 11.432 0.337916L0.383202 10.3295C-0.106081 10.772 -0.130095 11.5138 0.330033 11.9857L0.607041 12.2703C1.06661 12.7421 1.80945 12.7984 2.26516 12.3955L3.09088 11.666V22.3461C3.09088 23.0014 3.62908 23.5318 4.29281 23.5318H8.59965C9.26338 23.5318 9.80158 23.0014 9.80158 22.3461V14.8744H15.295V22.3461C15.2854 23.0009 15.7604 23.5314 16.4241 23.5314H20.9883C21.652 23.5314 22.1902 23.0009 22.1902 22.3456V11.8164C22.1902 11.8164 22.4183 12.0136 22.6996 12.2575C22.9805 12.501 23.5704 12.3058 24.017 11.8207L24.33 11.4813C24.7767 10.9967 24.7335 10.2539 24.2337 9.82274Z" fill="#77869E"/>
</svg>
