<svg width="21" height="22" viewBox="0 0 21 22" fill="none" xmlns="http://www.w3.org/2000/svg">
<g id="Notification">
<path id="Combined Shape" opacity="0.9" fill-rule="evenodd" clip-rule="evenodd" d="M15.6267 11C15.6304 11 15.6341 10.9991 15.6378 10.9991C15.6918 12.7333 16.4627 14.3752 17.7956 15.4926C18.2548 15.8784 18.4657 16.4698 18.3428 17.0619C18.1843 17.8273 17.4482 18.3334 16.6672 18.3334H1.74847C1.00407 18.3334 0.294577 17.875 0.100211 17.1573C-0.0666289 16.5403 0.139655 15.9078 0.604422 15.5109C1.99872 14.3321 2.79348 12.6197 2.79348 10.8056V8.24998C2.79348 4.70607 5.66634 1.83337 9.21009 1.83337C9.41721 1.83337 9.62165 1.84529 9.8234 1.86443C9.43383 2.69124 9.21009 3.6107 9.21009 4.58337C9.21009 8.12158 12.0893 11 15.6267 11ZM12.5779 19.25C12.259 20.8165 10.8703 22 9.21009 22C7.55009 22 6.16132 20.8165 5.84225 19.25H12.5779Z" fill="white"/>
<path id="Path" d="M20.2101 4.58339C20.2101 7.11469 18.1581 9.16661 15.6267 9.16661C13.0954 9.16661 11.0435 7.11469 11.0435 4.58339C11.0435 2.05209 13.0954 0 15.6267 0C18.1581 0 20.2101 2.05209 20.2101 4.58339Z" fill="#E15656"/>
</g>
</svg>
