<svg width="21" height="22" viewBox="0 0 21 22" fill="none" xmlns="http://www.w3.org/2000/svg">
<g id="InActived">
<path id="Fill 100" fill-rule="evenodd" clip-rule="evenodd" d="M8.79309 15.8824L10.2566 19.6293L11.7051 15.9258L10.9313 13.3019C11.0008 13.2381 11.0466 13.1485 11.0466 13.0476V12.445C11.0466 12.2534 10.8888 12.0973 10.6971 12.0973H9.78278C9.59055 12.0973 9.43332 12.2534 9.43332 12.445V13.0476C9.43332 13.1646 9.49632 13.2633 9.58571 13.3266L8.79309 15.8824" fill="#77869E"/>
<path id="Fill 101" fill-rule="evenodd" clip-rule="evenodd" d="M14.0388 12.0501L10.2561 21.7189L6.47769 12.048C2.65031 13.5434 0.768923 17.241 0 21.7779H20.5122C19.7411 17.2432 17.864 13.5467 14.0388 12.0501" fill="#77869E"/>
<path id="Fill 102" fill-rule="evenodd" clip-rule="evenodd" d="M10.2986 0C7.21485 0.00107317 4.71423 2.4919 4.71423 5.56385C4.71423 8.63741 7.21485 11.1277 10.2986 11.1277C13.3818 11.1277 15.8808 8.63741 15.8819 5.56385C15.8808 2.4919 13.3818 0.00107317 10.2986 0ZM10.2986 10.1753C7.82923 10.171 5.82185 8.24624 5.68454 5.82195C6.74208 4.89795 7.48731 3.68205 7.74308 2.31376C9.03377 3.75288 11.0062 4.67473 13.2171 4.67473C13.7615 4.67473 14.2892 4.61571 14.7975 4.50839C14.8777 4.84805 14.924 5.20005 14.9251 5.56385C14.9208 8.10941 12.8531 10.171 10.2986 10.1753V10.1753Z" fill="#77869E"/>
</g>
</svg>
