<svg width="27" height="22" viewBox="0 0 27 22" fill="none" xmlns="http://www.w3.org/2000/svg">
<g id="Active">
<path id="Fill 94" fill-rule="evenodd" clip-rule="evenodd" d="M0.5434 22C0.4004 22 0.26015 21.9417 0.16005 21.8405C0.0583 21.7398 0 21.5991 0 21.4566V0.5445H0.0011C0.0011 0.2453 0.2442 0 0.5434 0C0.84425 0 1.0868 0.2453 1.0868 0.5445V20.9126H25.459C25.7593 20.9126 26.0023 21.1558 26.0023 21.4566C26.0023 21.7558 25.7593 22 25.459 22H0.5434" fill="#0047CC"/>
<path id="Fill 95" fill-rule="evenodd" clip-rule="evenodd" d="M6.91405 18.4305C6.91405 19.0091 6.44105 19.4827 5.8619 19.4827H3.8544C3.27525 19.4827 2.8017 19.0091 2.8017 18.4305V16.2074C2.8017 15.6283 3.27525 15.1553 3.8544 15.1553H5.8619C6.44105 15.1553 6.91405 15.6283 6.91405 16.2074V18.4305" fill="#0047CC"/>
<path id="Fill 96" fill-rule="evenodd" clip-rule="evenodd" d="M12.1418 18.4305C12.1418 19.0091 11.6683 19.4827 11.0891 19.4827H9.0816C8.50245 19.4827 8.0289 19.0091 8.0289 18.4305V11.4466C8.0289 10.8675 8.50245 10.3939 9.0816 10.3939H11.0891C11.6683 10.3939 12.1418 10.8675 12.1418 11.4466V18.4305" fill="#0047CC"/>
<path id="Fill 97" fill-rule="evenodd" clip-rule="evenodd" d="M22.8646 18.3733C22.8646 18.9838 22.3652 19.4826 21.7553 19.4826H19.8627C19.2522 19.4826 18.7534 18.9838 18.7534 18.3733V9.28177C18.7534 8.67128 19.2522 8.17188 19.8627 8.17188H21.7553C22.3652 8.17188 22.8646 8.67128 22.8646 9.28177V18.3733" fill="#0EAFE6"/>
<path id="Fill 98" fill-rule="evenodd" clip-rule="evenodd" d="M17.3679 18.4305C17.3679 19.0091 16.8944 19.4827 16.3152 19.4827H14.3077C13.7286 19.4827 13.255 19.0091 13.255 18.4305V13.6103C13.255 13.0312 13.7286 12.5576 14.3077 12.5576H16.3152C16.8944 12.5576 17.3679 13.0312 17.3679 13.6103V18.4305" fill="#0047CC"/>
<path id="Fill 99" fill-rule="evenodd" clip-rule="evenodd" d="M22.0226 1.6571L18.0213 2.09435L19.3402 3.41325L14.9996 8.71745L10.4962 4.5545C10.1877 4.27015 9.71136 4.2663 9.40116 4.54735L2.78136 10.5242C2.44806 10.8245 2.42221 11.3382 2.72251 11.6715C2.88311 11.8486 3.10476 11.9388 3.32586 11.9388C3.52001 11.9388 3.71471 11.8701 3.87036 11.7298H3.86926L9.93851 6.25015L14.531 10.4951C14.6955 10.6469 14.9166 10.7244 15.1388 10.7085C15.361 10.6942 15.57 10.5853 15.7102 10.4131L20.4936 4.56715L21.5875 5.6611L22.0226 1.6571" fill="#0047CC"/>
</g>
</svg>
